<!DOCTYPE svg PUBLIC "-//W3C//DTD SVG 1.1//EN" "http://www.w3.org/Graphics/SVG/1.1/DTD/svg11.dtd">
<!-- Uploaded to: SVG Repo, www.svgrepo.com, Transformed by: SVG Repo Mixer Tools -->
<svg fill="#eeeeec" width="800px" height="800px" viewBox="-8.4 -8.4 40.80 40.80" xmlns="http://www.w3.org/2000/svg" stroke="#eeeeec">
<g id="SVGRepo_bgCarrier" stroke-width="0" transform="translate(0,0), scale(1)">
<path transform="translate(-8.4, -8.4), scale(2.55)" fill="#a40000" d="M9.166.33a2.25 2.25 0 00-2.332 0l-5.25 3.182A2.25 2.25 0 00.5 5.436v5.128a2.25 2.25 0 001.084 1.924l5.25 3.182a2.25 2.25 0 002.332 0l5.25-3.182a2.25 2.25 0 001.084-1.924V5.436a2.25 2.25 0 00-1.084-1.924L9.166.33z" strokewidth="0"/>
</g>
<g id="SVGRepo_tracerCarrier" stroke-linecap="round" stroke-linejoin="round"/>
<g id="SVGRepo_iconCarrier">
<path d="M12,22h2.787A7.211,7.211,0,0,0,22,14.787V12a9.953,9.953,0,0,0-.6-3.377L21.394,8.6A10,10,0,1,0,12,22Zm7.737-12A7.953,7.953,0,0,1,20,12v2.787c0,.072-.01.142-.013.213H13.858a1,1,0,0,1-.961-.725l-.857-3A1,1,0,0,1,13,10ZM12,4a8,8,0,0,1,6.918,4H13a3,3,0,0,0-2.884,3.824l.857,3A3.013,3.013,0,0,0,13.858,17H19.5a5.182,5.182,0,0,1-4.71,3H12A8,8,0,0,1,12,4Z"/>
</g>
</svg>