<!DOCTYPE svg PUBLIC "-//W3C//DTD SVG 1.1//EN" "http://www.w3.org/Graphics/SVG/1.1/DTD/svg11.dtd">
<!-- Uploaded to: SVG Repo, www.svgrepo.com, Transformed by: SVG Repo Mixer Tools -->
<svg width="800px" height="800px" viewBox="-1.2 -1.2 26.40 26.40" fill="none" xmlns="http://www.w3.org/2000/svg">
<g id="SVGRepo_bgCarrier" stroke-width="0">
<path transform="translate(-1.2, -1.2), scale(1.65)" fill="#73d216" d="M9.166.33a2.25 2.25 0 00-2.332 0l-5.25 3.182A2.25 2.25 0 00.5 5.436v5.128a2.25 2.25 0 001.084 1.924l5.25 3.182a2.25 2.25 0 002.332 0l5.25-3.182a2.25 2.25 0 001.084-1.924V5.436a2.25 2.25 0 00-1.084-1.924L9.166.33z" strokewidth="0"/>
</g>
<g id="SVGRepo_tracerCarrier" stroke-linecap="round" stroke-linejoin="round"/>
<g id="SVGRepo_iconCarrier"> <path d="M16.1667 7.41667L15.8159 7.14105C15.2873 6.72575 14.6346 6.5 13.9624 6.5H9.75C8.23122 6.5 7 7.73122 7 9.25V9.25C7 10.7688 8.23122 12 9.75 12H14.25C15.7688 12 17 13.2312 17 14.75V14.75C17 16.2688 15.7688 17.5 14.25 17.5H9.16695C8.41638 17.5 7.69307 17.2186 7.13978 16.7115L7 16.5833" stroke="#ffffff" stroke-width="2" stroke-linecap="round" stroke-linejoin="round"/> <path d="M12 19L12 5" stroke="#ffffff" stroke-width="2" stroke-linecap="round" stroke-linejoin="round"/> </g>
</svg>