<!DOCTYPE svg PUBLIC "-//W3C//DTD SVG 1.1//EN" "http://www.w3.org/Graphics/SVG/1.1/DTD/svg11.dtd">
<!-- Uploaded to: SVG Repo, www.svgrepo.com, Transformed by: SVG Repo Mixer Tools -->
<svg width="800px" height="800px" viewBox="-4.8 -4.8 33.60 33.60" fill="none" xmlns="http://www.w3.org/2000/svg" stroke="#204a87">
<g id="SVGRepo_bgCarrier" stroke-width="0">
<path transform="translate(-4.8, -4.8), scale(2.1)" fill="#ffffff" d="M9.166.33a2.25 2.25 0 00-2.332 0l-5.25 3.182A2.25 2.25 0 00.5 5.436v5.128a2.25 2.25 0 001.084 1.924l5.25 3.182a2.25 2.25 0 002.332 0l5.25-3.182a2.25 2.25 0 001.084-1.924V5.436a2.25 2.25 0 00-1.084-1.924L9.166.33z" strokewidth="0"/>
</g>
<g id="SVGRepo_tracerCarrier" stroke-linecap="round" stroke-linejoin="round"/>
<g id="SVGRepo_iconCarrier">
<path d="M10.968 18.769C15.495 18.107 19 14.434 19 9.938a8.49 8.49 0 0 0-.216-1.912C20.718 9.178 22 11.188 22 13.475a6.1 6.1 0 0 1-1.113 3.506c.06.949.396 1.781 1.01 2.497a.43.43 0 0 1-.36.71c-1.367-.111-2.485-.426-3.354-.945A7.434 7.434 0 0 1 15 19.95a7.36 7.36 0 0 1-4.032-1.181z" fill="#204a87"/>
<path d="M7.625 16.657c.6.142 1.228.218 1.875.218 4.142 0 7.5-3.106 7.5-6.938C17 6.107 13.642 3 9.5 3 5.358 3 2 6.106 2 9.938c0 1.946.866 3.705 2.262 4.965a4.406 4.406 0 0 1-1.045 2.29.46.46 0 0 0 .386.76c1.7-.138 3.041-.57 4.022-1.296z" fill="#204a87"/>
</g>
</svg>